<svg xmlns="http://www.w3.org/2000/svg" viewBox="0 0 138.59 138.59">
    <path d="M.71 138.59l-.71-.7 2.12-2.13.71.71zM5 134.35l-.71-.71 2.12-2.12.71.71zm4.24-4.24l-.7-.71 2.12-2.12.7.71zm4.24-4.24l-.7-.71 2.07-2.16.71.7zm4.25-4.25l-.71-.7 2.12-2.13.71.71zm4.24-4.24l-.71-.71 2.12-2.12.71.71zm4.24-4.24l-.7-.71 2.12-2.12.7.71zm4.25-4.25l-.71-.7 2.12-2.12.71.7zm4.24-4.24l-.71-.71 2.12-2.12.71.71zm4.24-4.24l-.71-.71 2.13-2.12.7.71zm4.24-4.24l-.7-.71 2.12-2.12.7.7zm4.25-4.25l-.71-.7 2.12-2.12.71.7zm4.24-4.24l-.76-.68L53 84.85l.71.71zm4.24-4.24l-.71-.71 2.13-2.12.7.71zm4.19-4.24l-.7-.71 2.12-2.12.71.7zm4.25-4.2l-.71-.7 2.12-2.13.71.71zm4.24-4.24l-.71-.76L70 67.88l.71.71zm4.24-4.24l-.71-.71 2.13-2.12.7.71zm4.24-4.24l-.7-.71 2.12-2.12.71.7zM81.32 58l-.71-.7 2.12-2.13.71.71zm4.24-4.24l-.71-.76L87 50.91l.71.71zm4.24-4.26l-.7-.71 2.12-2.12.7.71zm4.2-4.25l-.7-.7 2.12-2.12.71.7zM98.29 41l-.71-.7 2.12-2.13.71.71zm4.24-4.24l-.71-.71 2.12-2.12.71.71zm4.24-4.24l-.7-.71 2.12-2.12.7.71zm4.23-4.24l-.71-.7 2.12-2.12.71.7zm4.26-4.28l-.71-.71 2.12-2.12.71.71zm4.24-4.24l-.71-.71 2.13-2.05.7.71zm4.24-4.24l-.7-.71 2.12-2.12.7.71zm4.26-4.21l-.71-.7 2.12-2.12.71.7zm4.24-4.24l-.71-.71 2.12-2.12.71.71zm4.24-4.24l-.71-.71L137.89 0l.7.71z"
         fill="#5d5d5d" />
</svg>